<svg width="1082.43901" height="449.88124" xmlns="http://www.w3.org/2000/svg">
 <title>code_thinking</title>

 <g>
  <title>background</title>
  <rect fill="none" id="canvas_background" height="451.88124" width="1084.43901" y="-1" x="-1"/>
 </g>
 <g>
  <title>Layer 1</title>
  <polygon id="svg_1" fill="#ffb9b9" points="77.591 390.495 52.772 388.84 61.045 426.069 89.173 414.487 77.591 390.495"/>
  <polygon id="svg_2" fill="#2f2e41" points="305.1 321.001 247.189 264.744 214.096 290.391 148.739 368.985 156.185 380.567 235.606 326.792 289.381 397.113 340.674 371.467 305.1 321.001"/>
  <polygon id="svg_3" opacity="0.1" points="305.1 321.001 247.189 264.744 214.096 290.391 148.739 368.985 156.185 380.567 235.606 326.792 289.381 397.113 340.674 371.467 305.1 321.001"/>
  <path id="svg_4" fill="#ffb9b9" d="m310.06402,358.22994l-7.44576,5.79115l-60.39337,-20.68267l-14.06421,-5.79114l-28.12842,5.79114s0,-23.16458 26.47381,-22.33727l27.30111,6.61845l32.265,2.48192l23.99184,28.12842z"/>
  <polygon id="svg_5" fill="#2f2e41" points="363.839 419.451 345.638 431.033 324.128 431.033 224.024 393.804 77.591 420.278 73.454 388.84 207.478 330.102 324.956 368.985 363.839 419.451"/>
  <path id="svg_6" fill="#ffb9b9" d="m246.36142,272.19007l-12.4096,2.48191l-2.70423,-3.15494a16.71669,16.71669 0 0 1 -2.25961,-18.355l0,0l34.74687,-45.50186s9.92768,-22.33728 25.6465,-13.23691s-13.2369,23.99189 -13.2369,23.99189l-17.37344,27.30112l1.65461,14.06421l-14.0642,12.40958z"/>
  <circle id="svg_7" fill="#ffb9b9" r="32.26495" cy="186.1502" cx="324.95554"/>
  <path id="svg_8" fill="#ffb9b9" d="m310.47768,209.72842l14.89151,35.57419l35.57418,-14.89151s-11.58229,-28.12842 -11.58229,-28.95573s-38.8834,8.27305 -38.8834,8.27305z"/>
  <path id="svg_9" fill="#575a89" d="m408.43902,314.97005a185.3827,185.3827 0 0 1 -9.09209,57.34061l-2.41572,7.42925l-11.5823,52.94762l-12.40959,3.30922l-9.10037,-11.58229l-18.20075,-13.23685l-13.2369,-21.51l-11.35062,-18.91222l-3.5409,-5.907l-12.4096,-62.048l-47.15647,-26.47378l-15.71882,-2.48192l3.30923,-9.10037l14.06421,-19.02805l14.06418,-1.65466l4.13653,-3.30922l3.30923,1.65461l13.2369,-7.44576l4.13653,1.65462l24.19044,2.25025l14.693,-3.07756l21.12937,-11.34236l8.65364,1.41471l29.783,24.8192a185.22006,185.22006 0 0 1 11.50787,64.28995z"/>
  <path id="svg_10" fill="#2f2e41" d="m60.39023,403.30533s7.40995,-12.55867 4.28015,-14.02487s-16.42157,-7.31125 -16.42157,-7.31125l-19.49215,-6.45971s-28.126,-41.801 -28.74337,-5.45025s20.47916,45.08869 20.47916,45.08869s18.81556,40.49267 29.47375,34.03567s21.32331,-28.37583 21.32331,-28.37583s-19.22,-10.33209 -10.89928,-17.50245z"/>
  <polygon id="svg_11" opacity="0.1" points="399.413 307.764 367.975 328.447 321.051 370.755 317.51 364.848 307.582 315.21 310.064 315.21 335.711 268.054 399.413 307.764"/>
  <polygon id="svg_12" fill="#575a89" points="335.711 263.09 310.064 310.246 300.964 310.246 295.173 326.792 281.936 330.102 317.51 368.985 367.975 323.483 399.413 302.8 335.711 263.09"/>
  <path id="svg_13" fill="#2f2e41" d="m299.85998,162.1598l-3.49581,1.345a4.88017,4.88017 0 0 1 -1.24759,-6.86l-6.4602,-0.30231a48.78211,48.78211 0 0 1 72.82519,-5.86988c0.29412,-1.013 3.50037,0.95787 4.80938,2.95626c0.43984,-1.64837 3.4461,6.31994 4.5094,11.95247c0.49227,-1.8754 2.385,1.15218 0.72681,4.05727c1.05066,-0.15351 1.52525,2.53462 0.71189,4.0322c1.1494,-0.54 0.95568,2.66884 -0.29057,4.81326c1.64017,-0.14573 -12.93544,22.47575 -18.83687,35.696c-1.71358,-7.87343 -3.64027,-16.1643 -9.16573,-22.02916c-0.93919,-0.99689 -1.96768,-1.90488 -2.9945,-2.81126l-5.55369,-4.90228c-6.4579,-5.70042 -12.33246,-12.7359 -20.93549,-14.8664c-5.91224,-1.46413 -9.65052,-1.7947 -6.42852,-8.45681c-2.911,1.21478 -5.6294,3.02129 -8.5665,4.14957c0.03945,-0.93087 0.44994,-1.97254 0.3928,-2.90393z"/>
  <circle id="svg_14" fill="#ffb9b9" r="5.79115" cy="189.87308" cx="341.08801"/>
  <rect id="svg_15" fill="#6bcdfa" height="28" width="28" y="59.71015" x="178.43901"/>
  <path id="svg_16" fill="#6bcdfa" d="m223.43902,71.71014l-34,0l0,-34l34,0l0,34zm-32.52174,-1.47826l31.04348,0l0,-31.04348l-31.04348,0l0,31.04348z"/>
  <rect id="svg_17" fill="#6bcdfa" transform="rotate(74.06317138671875 526.7959594726564,327.3801879882812) " height="28" width="28" y="313.38019" x="512.79596"/>
  <path id="svg_18" fill="#6bcdfa" d="m74.46292,192.81655l-9.33563,-32.69321l32.69321,-9.33564l9.33563,32.69321l-32.69321,9.33564zm-7.50829,-31.67767l8.52384,29.85032l29.85032,-8.52383l-8.52384,-29.85033l-29.85032,8.52384z"/>
  <rect id="svg_19" fill="#6bcdfa" transform="rotate(133.06280517578125 349.0467224121094,103.9751968383789) " height="28" width="28" y="343.02378" x="467.53336"/>
  <path id="svg_20" fill="#6bcdfa" d="m54.00057,52.00361l23.21519,-24.8406l24.84059,23.21519l-23.21518,24.84059l-24.8406,-23.21518zm23.28586,-22.75121l-21.19647,22.68054l22.68055,21.19643l21.19647,-22.68054l-22.68055,-21.19643z"/>
  <path id="svg_21" fill="#3f3d56" d="m1026.23181,5.36231l-260.1696,0l0,-5.36232l-117.971,0l0,5.36232l-261.24209,0a17.5985,17.5985 0 0 0 -17.59851,17.59851l0,356.25219a17.59855,17.59855 0 0 0 17.59851,17.5986l639.38269,0a17.59855,17.59855 0 0 0 17.59851,-17.59857l0,-356.25222a17.5985,17.5985 0 0 0 -17.59851,-17.59851z"/>
  <rect id="svg_22" fill="#0c242d" height="353.91304" width="627.3913" y="38.46377" x="395.84481"/>
  <circle id="svg_23" fill="#6bcdfa" r="6.43478" cy="20.37681" cx="706.00423"/>
  <polygon id="svg_24" opacity="0.1" points="840.813 390.377 392.845 390.377 392.845 36.464 840.813 390.377"/>
  <path id="svg_35" fill="#3f3d56" d="m1061.44611,383.942l-61.22932,0l0,-4.41153a0.87467,0.87467 0 0 0 -0.8747,-0.87471l-20.99291,0a0.87468,0.87468 0 0 0 -0.8747,0.87471l0,4.41153l-13.12057,0l0,-4.41153a0.87468,0.87468 0 0 0 -0.8747,-0.87471l-20.99291,0a0.87468,0.87468 0 0 0 -0.87471,0.87471l0,4.41153l-13.12056,0l0,-4.41153a0.87468,0.87468 0 0 0 -0.87471,-0.87471l-20.99291,0a0.87468,0.87468 0 0 0 -0.8747,0.87471l0,4.41153l-13.12057,0l0,-4.41153a0.87468,0.87468 0 0 0 -0.8747,-0.87471l-20.99293,0a0.87467,0.87467 0 0 0 -0.8747,0.87471l0,4.41153l-13.12055,0l0,-4.41153a0.87468,0.87468 0 0 0 -0.87471,-0.87471l-20.9929,0a0.87468,0.87468 0 0 0 -0.87471,0.87471l0,4.41153l-13.12057,0l0,-4.41153a0.87468,0.87468 0 0 0 -0.8747,-0.87471l-20.99291,0a0.87468,0.87468 0 0 0 -0.8747,0.87471l0,4.41153l-13.12055,0l0,-4.41153a0.87468,0.87468 0 0 0 -0.8747,-0.87471l-164.44447,0a0.87468,0.87468 0 0 0 -0.8747,0.87471l0,4.41153l-13.12057,0l0,-4.41153a0.87468,0.87468 0 0 0 -0.87471,-0.87471l-20.99285,0a0.87468,0.87468 0 0 0 -0.87471,0.87471l0,4.41153l-13.12062,0l0,-4.41153a0.87467,0.87467 0 0 0 -0.8747,-0.87471l-20.99291,0a0.87468,0.87468 0 0 0 -0.8747,0.87471l0,4.41153l-13.12057,0l0,-4.41153a0.87468,0.87468 0 0 0 -0.8747,-0.87471l-20.99291,0a0.87468,0.87468 0 0 0 -0.87471,0.87471l0,4.41153l-13.12056,0l0,-4.41153a0.87468,0.87468 0 0 0 -0.87471,-0.87471l-20.99291,0a0.87468,0.87468 0 0 0 -0.8747,0.87471l0,4.41153l-13.12059,0l0,-4.41153a0.87468,0.87468 0 0 0 -0.8747,-0.87471l-20.99289,0a0.87467,0.87467 0 0 0 -0.8747,0.87471l0,4.41153l-13.12057,0l0,-4.41153a0.87468,0.87468 0 0 0 -0.87471,-0.87471l-20.9929,0a0.87468,0.87468 0 0 0 -0.87471,0.87471l0,4.41153l-40.23641,0a20.99292,20.99292 0 0 0 -20.9929,20.99291l0,9.4925a20.99291,20.99291 0 0 0 20.9929,20.99285l698.01419,0a20.99292,20.99292 0 0 0 20.99291,-20.99285l0,-9.4925a20.99293,20.99293 0 0 0 -20.99291,-20.99291z"/>
  <rect id="svg_36" fill="#6bcdfa" height="28" width="28" y="151.71015" x="51.43901"/>
  <ellipse ry="60" rx="89" id="svg_41" cy="141.39374" cx="172.7195" stroke-width="null" fill="#3f3d56"/>
  <path transform="rotate(17 227.70092773437509,170.0367736816406) " id="svg_43" d="m196.70091,194.53677l0,-49.00001l62,49.00001l-62,0z" stroke-width="null" fill="#3f3d56"/>
  <text xml:space="preserve" text-anchor="start" font-family="Helvetica, Arial, sans-serif" font-size="24" id="svg_45" y="125.39374" x="119.7195" stroke-opacity="null" stroke-width="0" stroke="null" fill="#6bcdfa">Welcome</text>
  <text xml:space="preserve" text-anchor="start" font-family="Helvetica, Arial, sans-serif" font-size="24" id="svg_46" y="157.39374" x="94.7195" fill-opacity="null" stroke-opacity="null" stroke-width="0" stroke="null" fill="#6bcdfa">to my portfolio!</text>
 </g>
</svg>