<svg width="1230" height="1260" xmlns="http://www.w3.org/2000/svg">
 <defs>
  <linearGradient y2="-0.00003" x2="0.50002" y1="1" x1="0.50002" id="70ce31e8-5126-44c6-9ded-adf44b0dced1">
   <stop stop-opacity="0.25" stop-color="gray" offset="0"/>
   <stop stop-opacity="0.12" stop-color="gray" offset="0.54"/>
   <stop stop-opacity="0.1" stop-color="gray" offset="1"/>
  </linearGradient>
 </defs>
 <title>businessman</title>
 <g>
  <title>background</title>
  <rect fill="none" id="canvas_background" height="1262" width="1232" y="-1" x="-1"/>
 </g>
 <g>
  <title>Layer 1</title>
  <path id="svg_1" opacity="0.1" fill="#6bcdfa" d="m500.34999,486.35c-47.88,-1.66 -93.48,-17.11 -137,-34s-86.7,-35.63 -133.43,-44.63c-30.06,-5.76 -64.43,-6.58 -88.65,9.53c-23.3,15.51 -30.84,42.28 -34.88,67.12c-3,18.69 -4.84,38.36 3.51,55.85c5.79,12.15 16.08,22.36 23.19,34c24.76,40.48 7.26,90.4 -19.57,129.93c-12.58,18.54 -27.18,36.23 -36.89,56s-14.21,42.35 -5.71,62.49c8.42,20 28.49,34.94 50.23,45.49c44.16,21.41 96.19,27.54 146.93,31c112.32,7.68 225.23,4.36 337.85,1c41.67,-1.24 83.53,-2.49 124.53,-8.93c22.77,-3.58 46.28,-9.26 62.81,-23c21,-17.41 26.18,-46.88 12.12,-68.71c-23.59,-36.61 -88.79,-45.71 -105.28,-85c-9.07,-21.63 0.25,-45.72 13.43,-65.77c28.29,-43 75.7,-80.78 78.2,-130c1.72,-33.77 -21.08,-67.6 -56.32,-83.59c-36.94,-16.75 -88.17,-14.64 -115.42,13.09c-28.06,28.62 -77.38,39.6 -119.65,38.13z"/>
  <ellipse id="svg_2" opacity="0.1" fill="#6bcdfa" ry="41.12" rx="303.97" cy="1121.32" cx="405.25"/>
  <path id="svg_3" fill="url(#70ce31e8-5126-44c6-9ded-adf44b0dced1)" d="m480.26999,570.6s-9.41,-18.57 -8.14,-24.09s-6.62,-17.31 -6.62,-17.31l0.51,-19.56s-1.09,2 -6.77,3.75c-0.48,-0.63 -1,-1.25 -1.54,-1.84a40.32,40.32 0 0 0 -6.82,-5.69l-10,-21.58l-9.67,-14.81s-15.25,-31 -31,-37.84l-2.48,-4.85a0.38,0.38 0 0 0 0.15,-0.49l-2.52,-4.93a0.39,0.39 0 0 0 -0.49,-0.18l-2.41,-4.72a37.91,37.91 0 0 0 -7,-16.89c-0.25,-0.35 -0.52,-0.67 -0.78,-1l3.92,-0.14c3.44,-0.13 7.28,-0.43 9.59,-3a8.77,8.77 0 0 0 1.79,-3.3a14,14 0 0 0 0.58,-2.93c0,-0.15 0,-0.3 0,-0.44q0,-0.51 0,-1c0,-0.27 0,-0.53 0,-0.8s0,-0.43 0,-0.64s-0.11,-0.69 -0.17,-1c0,-0.13 0,-0.26 -0.08,-0.39a11.66,11.66 0 0 0 -0.31,-1.16a1.55,1.55 0 0 1 -0.07,-0.23c-0.14,-0.4 -0.29,-0.8 -0.46,-1.19a1.11,1.11 0 0 1 -0.07,-0.16c-0.18,-0.39 -0.38,-0.77 -0.59,-1.14l-0.06,-0.12l0,0a4,4 0 0 0 -0.25,-0.45c-2.71,-4.26 -7.47,-6.75 -12,-9a138.69,138.69 0 0 0 -13,-6a70,70 0 0 0 -51,0.72a20.19,20.19 0 0 0 -4.54,2.42a23.46,23.46 0 0 0 -4.95,5.82l-7.75,11.45a16.18,16.18 0 0 0 -2.51,4.62c-1.45,5.44 3.1,10.89 2.59,16.5c-0.26,2.79 -1.76,5.35 -2.05,8.14c-0.37,3.6 1.3,7.07 2.93,10.32l11.09,22c-0.59,2.89 -1.24,5.85 -1.95,8.71l0,0c-5.11,5.28 -6.83,8.16 -7.3,9.72l-0.15,0.08l0,0a9,9 0 0 0 -2.56,2.5l-10.54,10.24s-18.32,4.76 -22.13,10.79c0,0 -28.75,-1.26 -28.5,38.89c0,0 -1.27,15.06 -2,17.07s0,22.33 0,22.33l-0.34,41.16s-1.1,21.83 0,29.61s2.37,37.39 2.37,37.39s6.87,28.86 4.33,39.15c-2.44,9.85 0,31.39 4,31.48c0.76,1.57 1.63,2.34 2.58,1.9a11,11 0 0 1 1.27,-0.46l0,24.59s-4.95,34.45 0.6,41c-3.68,5.24 -8,14.18 -9.1,16.53l-38.9,-2.09l-4.95,1.39l0,0l-4.54,1.27l-2.75,63.27l1.1,0.08l-0.08,1.93l2.6,0.19l-3.62,63.72l53.85,4.43c-2.37,5.31 -5.12,11 -6.19,11.55c-2,1 -6.36,-2 -7.38,-0.76s-4.07,2.76 -7.63,2s-5.85,3.26 -5.85,3.26s0.52,0.46 1.3,1.31c-5.78,-0.7 -13.09,2.4 -17.06,4.4c-1.78,0.9 -2.89,1.57 -2.89,1.57l-10.5,0l5.77,36.81l4.07,2.78l1,29s16.28,50.19 23.74,49.86a3.37,3.37 0 0 0 2.51,-1.26c4,-4.62 1.23,-20.49 1.23,-20.49l0,-26.42s6.1,-2.68 5.42,-4.69s9.84,-24 10.78,-26a0.17,0.17 0 0 0 0.08,-0.16c0,-2.26 4.58,-4.77 4.32,-5.77s11.2,-7.28 12,-12.8s8.39,-2.51 8.39,-2.51l9.66,-11.1c0.29,13.53 0.84,23 1.79,25.4c4.58,11.55 6.36,29.62 6.36,29.62s-2.8,13.8 0,18.32c1.72,2.76 5.72,5.72 8.5,8.17c-2.89,8.76 -2.48,27.38 -2.48,27.38l0,10.7l21.37,6s0.67,-5.35 1.69,-5.35s14.59,10.37 14.59,10.37s52.24,0.67 65.46,0c5,-0.25 6.36,-2.4 5.59,-5c-1.27,-4.33 -8.4,-9.94 -14.74,-10.37c-10.18,-0.67 -23.07,-11.37 -23.07,-11.37s1,-2.35 -4.41,-5.69c-3.74,-2.3 -14.09,-11.61 -20.49,-17.06c0.3,-0.41 0.61,-0.82 0.9,-1.26c0,0 -8.65,-12 -6.86,-17.32s-0.77,-13 -0.77,-13s-4.83,-14.81 -4.83,-22.34c0,-4.77 -0.72,-31.9 -1.24,-51.14l4.46,0.37l0.09,-1.92l2,0.18l18.91,1.74l-0.58,-20.21c9.11,-4 16.69,-7.71 19.83,-10.08c10.68,-8 19.84,-8.53 19.84,-8.53s21.62,-11.54 24.93,-16.31s3,-39.4 3,-39.4l-1.78,-74.22l0,-0.06s-1.52,-35.88 -4.58,-43.66c-1.12,-2.88 -3.89,-12.48 -6.92,-23.44a18.11,18.11 0 0 1 5.22,0.22c0.11,2.68 0.18,4.52 0.18,5.15c0,4.26 6.1,7.88 6.1,7.88l-4.32,-96l0,-65.31c13.32,4.24 45.53,5.56 45.53,5.56c23.21,-1.22 17.62,-22.34 17.62,-22.34zm-125.64,-82.48l-0.07,0a66.59,66.59 0 0 1 1.85,-7.45l-1.78,7.45zm-87.42,329.27c7.89,1.3 17,0.92 17.69,-0.61c0.07,-0.15 0.16,-0.42 0.28,-0.77c0.25,0.44 0.49,0.89 0.74,1.35l-0.77,14.48l0,0.33l-26,-1.4c1.82,-7.75 5.26,-11.53 8.06,-13.38zm86.67,73.06l-0.67,-23.45c1.16,-4.32 2.2,-8.24 3.09,-11.6c0.4,2.79 0.74,5.36 1,7.73c2.46,22.25 -1.17,26.59 -3.42,27.32zm74,-351.58c-1.49,0.57 -7.16,-3 -12.54,-6.7c0,-0.68 0.05,-1.35 0.08,-2c0.76,-15.31 -24.17,-24.84 -31.8,-26.6a27.41,27.41 0 0 1 -5.36,-2a125,125 0 0 1 -11.84,-6.69l0.1,-0.29s-9.84,-6.23 -10.05,-14a132.92,132.92 0 0 1 8.46,-20.53c0.19,-0.39 0.4,-0.8 0.6,-1.19a39.25,39.25 0 0 0 12.8,-6.78c1.53,20 30.47,37.21 30.47,37.21l3.09,5l0.73,1.18c-1.56,0.92 -2.31,1.66 -1.78,2.09c2.2,1.76 7.52,11.72 9.72,15.93a0.06,0.06 0 0 0 0,0c0.6,1.14 1,1.85 1,1.85s4.73,12.87 7.44,23.64a2,2 0 0 0 -1.14,-0.12l0.02,0z"/>
  <path id="svg_4" fill="#ffc5d3" d="m439.05999,487l-0.34,0.45l-1.16,1.55l-22.25,15.72l-4.72,-7.76l-3,-5s-44.35,-26.6 -25.28,-52.24s47.25,32.5 47.25,32.5l9.5,14.78z"/>
  <rect id="svg_5" fill="#3a3768" ry="0.38" rx="0.38" height="6.26" width="0.76" y="682.4" x="401.5"/>
  <rect id="svg_6" fill="#3a3768" ry="0.21" rx="0.21" height="2.06" width="0.43" y="678.6" x="370.75"/>
  <rect id="svg_7" fill="#3a3768" transform="rotate(-26.729999542236328 -152.24000549316423,560.5800170898436) " ry="0.24" rx="0.24" height="3.59" width="0.48" y="683.23" x="371.16999"/>
  <rect id="svg_8" fill="#3a3768" transform="rotate(-26.729999542236328 -153.960006713867,562.0299682617189) " ry="0.23" rx="0.23" height="3.62" width="0.46" y="689" x="371.63999"/>
  <rect id="svg_9" fill="#3a3768" ry="2.24" rx="2.24" height="51.62" width="25.4" y="673.99" x="375.13999"/>
  <path id="svg_10" fill="#6bcdfa" d="m384.15999,417.39a0.9,0.9 0 0 0 -0.4,1.22l0.08,0.17a0.91,0.91 0 0 1 -0.4,1.23l-9.62,4.84a0.9,0.9 0 0 1 -1.22,-0.4l-0.09,-0.17a0.91,0.91 0 0 0 -1.22,-0.41l-1.87,0.95a1.72,1.72 0 0 0 -0.77,2.33l20.44,40.57a1.75,1.75 0 0 0 2.34,0.77l16.78,-8.45a1.75,1.75 0 0 0 0.77,-2.34l-20.45,-40.59a1.74,1.74 0 0 0 -2.34,-0.77l-2.03,1.05z"/>
  <rect id="svg_11" fill="#e6e8ec" transform="rotate(-26.729999542236328 -144.94999694824224,561.719970703125) " ry="0.36" rx="0.36" height="0.72" width="3.55" y="671.03" x="382.97"/>
  <circle id="svg_12" fill="#e6e8ec" r="0.41" cy="420.17" cx="379.88"/>
  <path id="svg_13" fill="#5f5570" d="m398.55999,573l-6.25,167.72s21,-7 24.25,-1.75s-3.5,-84 -3.5,-84l-14.5,-81.97z"/>
  <path id="svg_14" opacity="0.15" d="m398.55999,573l-6.25,167.72s21,-7 24.25,-1.75s-3.5,-84 -3.5,-84l-14.5,-81.97z"/>
  <path id="svg_15" fill="#bc8487" d="m399.55999,1125.83c-13,0.67 -64.33,0 -64.33,0s-13.34,-10.33 -14.34,-10.33s-1.66,5.33 -1.66,5.33l-21,-6l0,-10.66s-0.67,-30.35 5.66,-31.67s34.34,0 34.34,0c1,-0.33 20,17.67 25.33,21s4.33,5.67 4.33,5.67s12.67,10.66 22.67,11.33c6.23,0.42 13.24,6 14.49,10.33c0.76,2.61 -0.59,4.75 -5.49,5z"/>
  <path id="svg_16" opacity="0.1" d="m399.55999,1125.83c-13,0.67 -64.33,0 -64.33,0s-13.34,-10.33 -14.34,-10.33s-1.66,5.33 -1.66,5.33l-21,-6l0,-10.45l19.66,7.12l15.67,9.33l71.49,0c0.76,2.61 -0.59,4.75 -5.49,5z"/>
  <path id="svg_17" opacity="0.1" stroke-miterlimit="10" stroke="#000" d="m341.18999,1110.17s16,-15.33 26.7,-11"/>
  <path id="svg_18" fill="#bc8487" d="m239.88999,1053.83c0.67,2 -5.33,4.67 -5.33,4.67l0,26.33s2.72,15.81 -1.21,20.42a3.29,3.29 0 0 1 -2.46,1.25c-7.33,0.33 -23.33,-49.67 -23.33,-49.67l-1,-28.89l-4,-2.77l-5.67,-36.67l10.34,0s1.09,-0.67 2.84,-1.57c5,-2.55 15.47,-7 21.16,-2.76l19.33,43.55s-11.33,24.11 -10.67,26.11z"/>
  <path id="svg_19" opacity="0.1" d="m233.34999,1105.25a3.29,3.29 0 0 1 -2.46,1.25c-7.33,0.33 -23.33,-49.67 -23.33,-49.67l-1,-28.89l-4,-2.77l-5.67,-36.67l10.34,0s1.09,-0.67 2.84,-1.57l2.49,37.57l1.33,32.33s12.56,35.2 19.46,48.42z"/>
  <path id="svg_20" fill="#433a59" d="m418.80999,917.25c-3.25,4.75 -24.5,16.25 -24.5,16.25s-9,0.5 -19.5,8.5c-5.43,4.14 -24.3,12.35 -41.25,19.32c-15.83,6.51 -30,11.93 -30,11.93l-16.32,19l-12.43,14.47s-7.5,-3 -8.25,2.5s-12,11.75 -11.75,12.75s-4.25,3.5 -4.25,5.75s-16.75,-16.25 -16.5,-27.5s-8.5,-19 -8.5,-19s2.25,-4 5.75,-3.25s6.5,-0.75 7.5,-2s5.25,1.75 7.25,0.75s10,-20.75 10,-20.75l31.17,-20.91l62,-41.56l2.86,-1.92s8.25,3.78 4.9,-27.19c-0.65,-6 -1.74,-13.29 -3.4,-22.17c-10.25,-54.75 26.5,-61 26.5,-61l32.25,10.75l7.75,12l0,0.06l1.75,73.94s0.22,34.53 -3.03,39.28z"/>
  <path id="svg_21" opacity="0.1" d="m333.30999,952.25s0.1,3.55 0.25,9.07c-15.83,6.51 -30,11.93 -30,11.93l-16.32,19c-0.27,-15.75 -0.21,-36.21 0,-57.18l62,-41.56c-7.67,28.43 -15.93,58.74 -15.93,58.74z"/>
  <path id="svg_22" opacity="0.1" d="m420.05999,804l0,0.06l-48.5,0.94s-8.5,33.25 -9.75,40.25c-0.31,1.72 -2.19,9.07 -4.85,19.17c-0.65,-6 -1.74,-13.29 -3.4,-22.17c-10.25,-54.75 26.5,-61 26.5,-61l32.25,10.75l7.75,12z"/>
  <path id="svg_23" fill="#433a59" d="m292.30999,713.25l-6.25,120s-4.5,176.25 0,187.75s6.25,29.5 6.25,29.5s-2.75,13.75 0,18.25s11.5,9.5 11.25,12s26.75,16 40.75,-5.5c0,0 -8.5,-12 -6.75,-17.25s-0.75,-13 -0.75,-13s-4.75,-14.75 -4.75,-22.28s-1.75,-70.5 -1.75,-70.5s27.25,-100 28.5,-107s9.75,-40.25 9.75,-40.25l51.5,-1s-1.5,-35.75 -4.5,-43.5s-17.75,-64.5 -17.75,-64.5l-105.5,17.28z"/>
  <polygon id="svg_24" fill="#7b728f" points="206.36000061035156,830.8900146484375 201.88999938964844,832.1700134277344 201.7100067138672,836.5899963378906 335.7300109863281,838.3200073242188 335.7300109863281,836.5799865722656 206.36000061035156,830.8900146484375 "/>
  <path id="svg_25" fill="#ffc5d3" d="m364.43999,462.87c-19.5,39.55 -7.39,47.82 -5.46,48.84c-4.13,-1.92 -57.81,-27.14 -50.75,-33.54c4.59,-4.17 8.52,-22.31 10.83,-35.31c1.37,-7.76 2.17,-13.69 2.17,-13.69l56.33,10.33c-5.46,8.8 -9.8,16.55 -13.12,23.37z"/>
  <path id="svg_26" opacity="0.1" d="m438.75999,487.45l-1.16,1.55l-22.29,15.72l-4.72,-7.76c6.87,-4 27.47,-11 27.47,-11l0.7,1.49z"/>
  <path id="svg_27" fill="#e5e8ef" d="m459.30999,523.5c-2,7 -35.75,0 -35.75,0l-3.5,-5.5s-0.35,-0.7 -0.94,-1.84a0.06,0.06 0 0 1 0,0c-2.16,-4.19 -7.39,-14.11 -9.55,-15.87c-2.75,-2.25 29.5,-13.25 29.5,-13.25l9.88,21.5a39.82,39.82 0 0 1 6.7,5.67c2.5,2.71 4.57,6.1 3.66,9.29z"/>
  <path id="svg_28" fill="#5f5570" d="m403.30999,526.72s20,15.78 23,14.64s51.5,31.61 51.5,31.61s5.5,21 -17.25,22.25c0,0 -48.25,-2 -50.25,-9s-7,-59.5 -7,-59.5z"/>
  <path id="svg_29" opacity="0.1" d="m348.80999,495l-21.75,22.5l30.5,194l12,-7s31,13.75 33.5,1s1.81,-63 1.81,-63l-4.06,-90.78s-14.25,-31.75 -14.25,-32.75s-20.55,-16.5 -20.55,-16.5l-9.7,-7.5l-7.5,0.03z"/>
  <path id="svg_30" fill="#e5e8ef" d="m348.80999,492l-21.75,22.5l30.5,194l12,-7s31,13.75 33.5,1s1.81,-63 1.81,-63l-4.06,-90.78s-14.25,-31.75 -14.25,-32.75s-20.55,-16.5 -20.55,-16.5l-9.7,-7.5l-7.5,0.03z"/>
  <path id="svg_31" opacity="0.1" d="m350.05999,495.25l-6,12.25l6,6.33s21.5,43.42 17.25,69.17l4.5,84.75l14.5,14.25l11.5,-13.28l-5.5,-77s-14.75,-63.5 -30.25,-83.25l-4.5,-17.5l-7.5,4.28z"/>
  <path id="svg_32" fill="#bc8487" d="m350.05999,493.25l-6,12.25l6,6.33s21.5,43.42 17.25,69.17l4.5,84.75l14.5,14.25l11.5,-13.28l-5.5,-77s-14.75,-63.5 -30.25,-83.25l-4.5,-17.5l-7.5,4.28z"/>
  <path id="svg_33" opacity="0.1" d="m377.55999,439.5c-5.46,8.8 -9.76,16.55 -13.12,23.37a38.45,38.45 0 0 1 -10.9,1.57c-12.36,0 -19.48,-8.55 -26.48,-17.63c-1.6,-2.06 -6.86,-1.58 -8,-4c1.37,-7.76 2.17,-13.69 2.17,-13.69l56.33,10.38z"/>
  <path id="svg_34" fill="#ffc5d3" d="m391.86999,425.1a38.33,38.33 0 1 1 -7.29,-22.49a38.33,38.33 0 0 1 7.29,22.49z"/>
  <path id="svg_35" opacity="0.1" d="m341.30999,510.5l-31.5,-38s-2.91,-1.17 6.92,-11.46c0,0 36.1,28.14 38.34,32.92s-13.76,16.54 -13.76,16.54z"/>
  <path id="svg_36" fill="#e5e8ef" d="m340.30999,508.5l-31.5,-38s-2.91,-1.17 6.92,-11.46c0,0 36.1,28.14 38.34,32.92s-13.76,16.54 -13.76,16.54z"/>
  <path id="svg_37" fill="#5f5570" d="m420.05999,750.35s-6,-3.6 -6,-7.85s-3,-64.25 -3,-64.25s-4.4,-35.81 -9,-64.27l0,0c-2.7,-16.77 -5.47,-31 -7.43,-33.82l-0.08,-0.12c-5.25,-6.75 -4.25,-39.75 -37,-88c0.44,0.3 11.73,8.22 20,12.2a27.42,27.42 0 0 0 5.27,2c7.5,1.75 32,11.25 31.25,26.5s1.75,50.25 1.75,50.25l0,71.73l4.24,95.63z"/>
  <path id="svg_38" opacity="0.1" d="m459.30999,523.5c-2,7 -35.75,0 -35.75,0l-3.5,-5.5s-0.35,-0.7 -0.94,-1.84a0.06,0.06 0 0 1 0,0a0.67,0.67 0 0 1 -0.05,-0.12c19.61,1.37 30.54,-0.06 36.58,-1.83c2.5,2.71 4.57,6.1 3.66,9.29z"/>
  <path id="svg_39" fill="#5f5570" d="m420.05999,518s10.5,29 9,36.25s24.25,35.75 24.25,35.75l24.5,-17s-9.25,-18.5 -8,-24s-6.5,-17.25 -6.5,-17.25l0.5,-19.48s-4.5,8.45 -43.75,5.73z"/>
  <path id="svg_40" opacity="0.1" d="m384.57999,402.61l-19,0.72a21.16,21.16 0 0 0 -5.5,0.69c-6.79,2.09 -9.92,9.31 -10.17,15.8s-4,13.76 -11.27,14.33a2.81,2.81 0 0 1 -2.07,-0.46a3.42,3.42 0 0 1 -0.88,-1.77a38.7,38.7 0 0 0 -4.78,-10.68c-3,0.54 -5.22,3.39 -6,6.37s-0.57,6.12 -0.56,9.21a59.61,59.61 0 0 1 -1.13,11.69a38.33,38.33 0 1 1 61.39,-45.9l-0.03,0z"/>
  <path id="svg_41" fill="#281e23" d="m359.08999,403.02a21.16,21.16 0 0 1 5.5,-0.69l23.07,-0.86c3.38,-0.13 7.15,-0.43 9.42,-2.94a8.81,8.81 0 0 0 1.76,-3.29a14.2,14.2 0 0 0 -1.49,-11.63c-2.67,-4.25 -7.35,-6.72 -11.81,-9a137.23,137.23 0 0 0 -12.77,-6a68,68 0 0 0 -50.1,0.72a20.22,20.22 0 0 0 -4.46,2.39a23.05,23.05 0 0 0 -4.86,5.8l-7.59,11.44a15.75,15.75 0 0 0 -2.39,4.62c-1.43,5.43 3,10.86 2.54,16.45c-0.26,2.78 -1.73,5.33 -2,8.11c-0.36,3.59 1.28,7 2.89,10.27l13.34,26.91a59.62,59.62 0 0 0 3.23,-19.5c0,-3.09 -0.26,-6.23 0.56,-9.21s3,-5.83 6,-6.37a38.57,38.57 0 0 1 4.79,10.68a3.38,3.38 0 0 0 0.88,1.77a2.8,2.8 0 0 0 2.07,0.46c7.31,-0.57 11,-7.77 11.27,-14.33s3.36,-13.71 10.15,-15.8z"/>
  <polygon id="svg_42" fill="#7b728f" points="201.88999938964844,832.1700134277344 211.22999572753906,829.5 352.05999755859375,837.1700134277344 336.55999755859375,839.1700134277344 201.88999938964844,832.1700134277344 "/>
  <polygon id="svg_43" opacity="0.1" points="201.88999938964844,832.1700134277344 211.22999572753906,829.5 352.05999755859375,837.1700134277344 336.55999755859375,839.1700134277344 201.88999938964844,832.1700134277344 "/>
  <polygon id="svg_44" fill="#7b728f" points="355.8900146484375,972.1699829101562 337.30999755859375,970.4400024414062 330.7900085449219,969.8400268554688 330.7900085449219,866.5 332.510009765625,842.510009765625 332.8900146484375,837.1700134277344 352.05999755859375,837.1700134277344 355.8900146484375,972.1699829101562 "/>
  <polygon id="svg_45" opacity="0.1" points="350.80999755859375,968.5 335.989990234375,966.8599853515625 330.7900085449219,966.2899780273438 330.7900085449219,868.3099975585938 332.1600036621094,845.5700073242188 332.4599914550781,840.5 347.75,840.5 350.80999755859375,968.5 "/>
  <path id="svg_46" fill="#7b728f" d="m249.17999,832.17s9.25,-20.29 13.13,-20.92s11,0 11,0l-0.63,5.88s-9.5,0.75 -12.5,16.62l-11,-1.58z"/>
  <path id="svg_47" opacity="0.1" d="m249.17999,832.17s9.25,-20.29 13.13,-20.92s11,0 11,0l-0.63,5.88s-9.5,0.75 -12.5,16.62l-11,-1.58z"/>
  <path id="svg_48" fill="#7b728f" d="m285.05999,809.13s24.87,12.37 21.62,26.87l-13.5,-0.75s-6.5,-21.62 -11.62,-22.75s3.5,-3.37 3.5,-3.37z"/>
  <path id="svg_49" fill="#5f5570" d="m377.55999,613.25l0,0.73l-0.5,83.27s-12.75,70 -16.25,72.75s-80.25,-4.75 -80.25,-4.75l-34.75,-234.25c-0.25,-40 28,-38.75 28,-38.75c3.75,-6 21.75,-10.75 21.75,-10.75l10,-9.75l0.32,-0.45a8.89,8.89 0 0 1 2.52,-2.49l0,0c2.06,-1.19 3.37,0.38 4.12,1.93a11.63,11.63 0 0 1 0.78,2.27c40.51,29.71 64.26,140.24 64.26,140.24z"/>
  <path id="svg_50" opacity="0.1" d="m376.55999,614.25l0,0.73c-12.57,-23 -61,-110.14 -74.25,-114.48l5.1,-3.5s3.4,-2 -2.85,-4c0,0 -9.75,1.25 -10,-10.5l10.32,-10.2l2.52,-2.49l0,0l4.12,1.93a11.63,11.63 0 0 1 0.78,2.27c40.51,29.71 64.26,140.24 64.26,140.24z"/>
  <path id="svg_51" fill="#433a59" d="m377.55999,613.25l0,0.73c-12.57,-23 -61,-110.14 -74.25,-114.48l5.1,-3.5s3.4,-2 -2.85,-4c0,0 -9.75,1.25 -10,-10.5l10.32,-10.2l2.52,-2.49l0,0l4.12,1.93a11.63,11.63 0 0 1 0.78,2.27c40.51,29.71 64.26,140.24 64.26,140.24z"/>
  <path id="svg_52" opacity="0.1" d="m395.63999,581.12l-0.08,-0.12c-5.25,-6.75 -4.25,-39.75 -37,-88c0.44,0.3 11.73,8.22 20,12.2l-2.31,7.62l5,2.67l14.39,65.63z"/>
  <path id="svg_53" fill="#433a59" d="m394.63999,580.12l-0.08,-0.12c-5.25,-6.75 -4.25,-39.75 -37,-88c0.44,0.3 11.73,8.22 20,12.2l-2.31,7.62l5,2.67l14.39,65.63z"/>
  <path id="svg_54" opacity="0.1" d="m356.11999,484.3l-2.05,8.66s1.5,8.67 10.49,9.42l1.45,-4.13s-9.7,-6.22 -9.89,-13.95z"/>
  <path id="svg_55" fill="#e5e8ef" d="m356.11999,483.3l-2.05,8.66s1.5,8.67 10.49,9.42l1.45,-4.13s-9.7,-6.22 -9.89,-13.95z"/>
  <polygon id="svg_56" opacity="0.1" points="343.19000244140625,838.5700073242188 337.30999755859375,970.4400024414062 330.7900085449219,969.8400268554688 330.7900085449219,866.5 332.510009765625,842.510009765625 343.19000244140625,838.5700073242188 "/>
  <polygon id="svg_57" fill="#7b728f" points="203.22999572753906,889.5 199.22999572753906,960.8300170898438 335.2300109863281,972.1699829101562 341.19000244140625,838.5700073242188 203.22999572753906,889.5 "/>
  <polygon id="svg_58" opacity="0.1" points="200.22999572753906,897.1699829101562 202.88999938964844,834.1700134277344 342.19000244140625,840.5700073242188 335.55999755859375,907.1699829101562 200.22999572753906,897.1699829101562 "/>
  <polygon id="svg_59" fill="#7b728f" points="199.22999572753906,895.1699829101562 201.88999938964844,832.1700134277344 341.19000244140625,838.5700073242188 334.55999755859375,905.1699829101562 199.22999572753906,895.1699829101562 "/>
  <rect id="svg_60" fill="#c3bbc8" height="19.5" width="16.75" y="895.25" x="257.81"/>
  <path id="svg_61" fill="#ffc5d3" d="m260.30999,767.5l-2.5,6.75s-5.25,37 1.25,41.5s25.75,4.75 26.75,2.5s8,-27.75 8,-27.75s6.25,18.75 9.5,17.25s-7.5,-37.14 -7.5,-37.14l-35.5,-3.11z"/>
  <path id="svg_62" opacity="0.1" d="m257.80999,739.5l0,35.75s26.5,5 38,-3.64c0,0 -10.75,-34.61 -6.75,-43.36s-31.25,11.25 -31.25,11.25z"/>
  <path id="svg_63" fill="#e5e8ef" d="m257.80999,738.5l0,35.75s26.5,5 38,-3.64c0,0 -10.75,-34.61 -6.75,-43.36s-31.25,11.25 -31.25,11.25z"/>
  <path id="svg_64" opacity="0.1" d="m254.80999,529.25l-7,3.75s-1.25,15 -2,17s0,22.25 0,22.25l-0.34,41s-1.08,21.75 0,29.5s2.29,37.25 2.29,37.25s6.76,28.75 4.26,39s0.25,33.25 4.5,31.25s43.5,-9.75 45.5,-11.25s1,-15.5 0,-17.25s-7,-25.5 -6.5,-31s-1.75,-53.75 -1.75,-53.75s3.75,-51.5 5.25,-63.5s-3,-47.25 -7,-47.75s-15.71,-27.75 -37.21,3.5z"/>
  <path id="svg_65" fill="#5f5570" d="m252.80999,527.25l-7,3.75s-1.25,15 -2,17s0,22.25 0,22.25l-0.34,41s-1.08,21.75 0,29.5s2.29,37.25 2.29,37.25s6.76,28.75 4.26,39s0.25,33.25 4.5,31.25s43.5,-9.75 45.5,-11.25s1,-15.5 0,-17.25s-7,-25.5 -6.5,-31s-1.75,-53.75 -1.75,-53.75s3.75,-51.5 5.25,-63.5s-3,-47.25 -7,-47.75s-15.71,-27.75 -37.21,3.5z"/>
  <g id="svg_66" opacity="0.1">
   <path id="svg_67" d="m328.41999,416.49c-3,0.54 -5.22,3.39 -6,6.37s-0.57,6.12 -0.56,9.21a59.61,59.61 0 0 1 -3.22,19.5l-13.35,-26.91c-0.26,-0.53 -0.53,-1.08 -0.79,-1.63a36.37,36.37 0 0 0 2.29,5.38l13.35,26.91a59.61,59.61 0 0 0 3.22,-19.5c0,-3.09 -0.25,-6.23 0.56,-9.21s3,-5.83 6,-6.37a40.13,40.13 0 0 1 2.59,4.73a39,39 0 0 0 -4.09,-8.48z"/>
   <path id="svg_68" d="m397.58999,384.04a14.16,14.16 0 0 1 -0.24,7.45a8.83,8.83 0 0 1 -1.77,3.29c-2.27,2.51 -6,2.81 -9.42,2.94l-23.06,0.86a21.23,21.23 0 0 0 -5.51,0.69c-6.78,2.09 -9.92,9.31 -10.17,15.8s-4,13.76 -11.27,14.33a2.81,2.81 0 0 1 -2.07,-0.46l0,0c0.23,0.65 0.45,1.31 0.64,2a3.3,3.3 0 0 0 0.87,1.77a2.81,2.81 0 0 0 2.07,0.46c7.32,-0.57 11,-7.77 11.27,-14.33s3.39,-13.71 10.17,-15.8a21.23,21.23 0 0 1 5.51,-0.69l23.06,-0.86c3.38,-0.13 7.15,-0.43 9.42,-2.94a8.83,8.83 0 0 0 1.77,-3.29a14.2,14.2 0 0 0 -1.27,-11.22z"/>
  </g>
  <path id="svg_69" opacity="0.1" d="m360.03999,794.19s8.66,-4.5 12,-4.25s33.33,38.39 33.33,38.39l-45.33,-34.14z"/>
  <path id="svg_70" opacity="0.1" d="m271.20999,536.07s-15.83,6.76 -15.41,11.43s15.41,-11.43 15.41,-11.43z"/>
  <path id="svg_71" opacity="0.1" d="m263.49999,558.17s-16.61,21.24 -12.94,21.95s12.94,-21.95 12.94,-21.95z"/>
  <path id="svg_72" opacity="0.1" d="m319.05999,590s1.52,47.5 -10.66,53.5l10.66,-53.5z"/>
  <path id="svg_73" opacity="0.1" d="m255.75999,716.83s11.72,-6.66 14.41,-5.33s-14.41,5.33 -14.41,5.33z"/>
  <path id="svg_74" opacity="0.1" d="m257.80999,726.04s7.4,0.53 10.91,-1s-10.91,1 -10.91,1z"/>
  <path id="svg_75" opacity="0.1" d="m434.45999,551.13s9.18,26.37 14.47,26.37"/>
  <path id="svg_76" opacity="0.1" d="m303.91999,1056.17s17.22,-4.67 19.76,0s-19.76,0 -19.76,0z"/>
  <path id="svg_77" opacity="0.1" d="m249.17999,986.93s-4.29,6.57 1.38,8.57s-1.38,-8.57 -1.38,-8.57z"/>
  <path id="svg_78" opacity="0.1" d="m363.55999,895.25s13,11.58 19.14,11.92s-19.14,-11.92 -19.14,-11.92z"/>
  <path id="svg_80" fill="#6bcdfa" d="m635.98999,714.52s-38,-2.29 -33.56,24.37c0,0 -0.89,4.71 3.38,6.85c0,0 0.07,-2 3.9,-1.31a17.05,17.05 0 0 0 4.14,0.2a8.62,8.62 0 0 0 5,-2.08l0,0s10.69,-4.42 14.85,-21.9c0,0 3.08,-3.81 3,-4.79l-6.44,2.74s2.19,4.63 0.47,8.48c0,0 -0.21,-8.31 -1.45,-8.12c-0.25,0 -3.33,1.61 -3.33,1.61s3.77,8.07 0.92,13.93c0,0 1.09,-9.94 -2.1,-13.35l-4.51,2.64s4.41,8.33 1.42,15.13c0,0 0.77,-10.43 -2.37,-14.49l-4.09,3.2s4.14,8.21 1.61,13.85c0,0 -0.33,-12.14 -2.5,-13.06c0,0 -3.58,3.16 -4.13,4.46c0,0 2.84,6 1.08,9.11c0,0 -1.08,-8.09 -2,-8.13c0,0 -3.57,5.36 -3.94,9a19.4,19.4 0 0 1 3.08,-9.54a10.72,10.72 0 0 0 -5.47,2.83s0.56,-3.79 6.35,-4.12c0,0 2.95,-4.07 3.74,-4.31c0,0 -5.76,-0.49 -9.26,1.06c0,0 3.08,-3.57 10.31,-2l4,-3.3s-7.59,-1 -10.8,0.11c0,0 3.7,-3.16 11.88,-0.86l4.41,-2.63s-6.47,-1.39 -10.32,-0.89c0,0 4.06,-2.19 11.61,0.18l3.14,-1.41s-4.73,-0.93 -6.12,-1.08s-1.46,-0.53 -1.46,-0.53a16.51,16.51 0 0 1 8.9,1s6.78,-2.43 6.66,-2.85z"/>
  <ellipse id="svg_81" opacity="0.1" fill="#6bcdfa" ry="4.55" rx="26.93" cy="1083.88" cx="857.6"/>
  <ellipse id="svg_82" opacity="0.1" fill="#6bcdfa" ry="4.55" rx="26.93" cy="1016.15" cx="37.93"/>
  <ellipse id="svg_83" opacity="0.1" fill="#6bcdfa" ry="4.55" rx="26.93" cy="995.75" cx="838.86"/>
  <ellipse id="svg_84" opacity="0.1" fill="#6bcdfa" ry="4.55" rx="26.93" cy="1040.56" cx="142.09"/>
  <ellipse id="svg_85" opacity="0.1" fill="#6bcdfa" ry="4.55" rx="26.93" cy="1044.47" cx="718.82"/>
  <ellipse id="svg_86" fill="#6bcdfa" ry="6.8" rx="40.21" cy="1132.64" cx="798.66"/>
  <path id="svg_87" fill="#6bcdfa" d="m815.27999,1121.52a11.68,11.68 0 0 0 3.83,-5.78c0.5,-2.3 -0.48,-5 -2.68,-5.89c-2.46,-0.94 -5.09,0.76 -7.08,2.48s-4.28,3.69 -6.89,3.33a10.5,10.5 0 0 0 3.25,-9.82a4.13,4.13 0 0 0 -0.91,-2c-1.36,-1.46 -3.84,-0.83 -5.47,0.32c-5.2,3.66 -6.65,10.72 -6.68,17.08c-0.52,-2.3 -0.08,-4.69 -0.1,-7s-0.65,-5 -2.64,-6.22a8,8 0 0 0 -4,-0.95c-2.34,-0.08 -4.94,0.15 -6.53,1.86c-2,2.12 -1.47,5.69 0.25,8s4.35,3.8 6.77,5.42a14.89,14.89 0 0 1 4.83,4.61a3.83,3.83 0 0 1 0.36,0.82l14.66,0a40.9,40.9 0 0 0 9.03,-6.26z"/>
  <path id="svg_88" fill="#6bcdfa" d="m143.47999,928.72s5.5,7.18 -2.53,18s-14.65,20 -12,26.76c0,0 12.12,-20.14 22,-20.42s3.38,-12.2 -7.47,-24.34z"/>
  <path id="svg_89" opacity="0.1" d="m143.47999,928.72a8.63,8.63 0 0 1 1.12,2.25c9.62,11.3 14.75,21.85 5.5,22.12c-8.61,0.24 -18.94,15.64 -21.42,19.53a9.24,9.24 0 0 0 0.29,0.89s12.12,-20.14 22,-20.42s3.36,-12.23 -7.49,-24.37z"/>
  <path id="svg_90" fill="#ffd037" d="m153.68999,937.9c0,2.53 -0.28,4.58 -0.63,4.58s-0.63,-2 -0.63,-4.58s0.35,-1.34 0.7,-1.34s0.56,-1.19 0.56,1.34z"/>
  <path id="svg_91" fill="#ffd037" d="m157.19999,940.92c-2.22,1.21 -4.16,1.94 -4.32,1.64s1.49,-1.54 3.71,-2.75s1.35,-0.33 1.51,0s1.32,-0.09 -0.9,1.11z"/>
  <path id="svg_92" fill="#6bcdfa" d="m114.46999,928.72s-5.5,7.18 2.53,18s14.65,20 12,26.76c0,0 -12.11,-20.14 -22,-20.42s-3.38,-12.2 7.47,-24.34z"/>
  <path id="svg_93" opacity="0.1" d="m114.46999,928.72a8.82,8.82 0 0 0 -1.13,2.25c-9.62,11.3 -14.74,21.85 -5.5,22.12c8.62,0.24 18.95,15.64 21.43,19.53a7.16,7.16 0 0 1 -0.3,0.89s-12.11,-20.14 -22,-20.42s-3.35,-12.23 7.5,-24.37z"/>
  <path id="svg_94" fill="#ffd037" d="m104.24999,937.9c0,2.53 0.29,4.58 0.64,4.58s0.63,-2 0.63,-4.58s-0.35,-1.34 -0.7,-1.34s-0.57,-1.19 -0.57,1.34z"/>
  <path id="svg_95" fill="#ffd037" d="m100.75999,940.92c2.22,1.21 4.15,1.94 4.32,1.64s-1.5,-1.54 -3.72,-2.75s-1.34,-0.33 -1.51,0s-1.32,-0.09 0.91,1.11z"/>
  <path id="svg_96" fill="#a8a8a8" d="m105.99999,972.6s15.36,-0.47 20,-3.77s23.63,-7.23 24.77,-1.94s23.09,26.29 5.75,26.43s-40.3,-2.7 -44.92,-5.52s-5.6,-15.2 -5.6,-15.2z"/>
  <path id="svg_97" opacity="0.2" d="m156.81999,991.48c-17.34,0.14 -40.3,-2.7 -44.92,-5.52c-3.51,-2.14 -4.92,-9.83 -5.39,-13.38l-0.51,0s1,12.39 5.59,15.2s27.58,5.66 44.92,5.52c5,0 6.73,-1.82 6.64,-4.46c-0.7,1.61 -2.61,2.61 -6.33,2.64z"/>
  <path stroke="null" id="svg_99" d="m564.80979,767.27853c-9.66504,0 -17.5,3.35798 -17.5,7.50013c0,1.41549 0.92625,2.73784 2.52008,3.86697l-2.52008,3.15718l7.01621,-1.02942c2.92374,0.94084 6.54628,1.50514 10.48379,1.50514c9.66505,0 17.50001,-3.35798 17.50001,-7.49987c0,-4.14215 -7.83496,-7.50013 -17.50001,-7.50013l0,0z" fill-opacity="null" stroke-opacity="null" stroke-width="null" fill="#6bcdfa"/>
  <path id="svg_100" d="m808.77334,96.59592c-165.6864,0 -299.99997,92.34445 -299.99997,206.25353c0,38.92604 15.87867,75.29043 43.20145,106.34156l-43.20145,86.82251l120.27792,-28.30893c50.12121,25.87298 112.22187,41.39131 179.72205,41.39131c165.68657,0 300.00005,-92.34455 300.00005,-206.24647c0,-113.90906 -134.31346,-206.25353 -300.00005,-206.25353l0,0.00002z" stroke-width="null" stroke="#fac993" fill="#262c30"/>
  <path id="svg_102" d="m153.75,217.36328" opacity="0.5" fill-opacity="null" stroke-opacity="null" stroke-width="null" stroke="null" fill="#6bcdfa"/>
  <text stroke="null" transform="matrix(1,0,0,2.73714280128479,0,-322.02284678816795) " font-weight="bold" xml:space="preserve" text-anchor="start" font-family="Helvetica, Arial, sans-serif" font-size="24" id="svg_103" y="207.36328" x="706.25" fill-opacity="null" stroke-opacity="null" stroke-width="0" fill="#000000"/>
  <text stroke="null" xml:space="preserve" text-anchor="start" font-family="Helvetica, Arial, sans-serif" font-size="24" id="svg_105" y="177.36328" x="636.25" fill-opacity="null" stroke-opacity="null" stroke-width="0" fill="#000000"/>
  <text stroke="null" font-weight="bold" xml:space="preserve" text-anchor="start" font-family="Helvetica, Arial, sans-serif" font-size="37" id="svg_106" y="199.86328" x="593.75" stroke-opacity="null" stroke-width="0" fill="#fac993">I dont know who you are.</text>
  <text font-weight="bold" xml:space="preserve" text-anchor="start" font-family="Helvetica, Arial, sans-serif" font-size="37" id="svg_107" y="242.36328" x="548.75" stroke-opacity="null" stroke-width="0" stroke="null" fill="#fac993">I don't know what you want. If</text>
  <text font-weight="bold" xml:space="preserve" text-anchor="start" font-family="Helvetica, Arial, sans-serif" font-size="37" id="svg_108" y="284.86328" x="521.25" stroke-opacity="null" stroke-width="0" stroke="null" fill="#fac993">you are looking for ransom, I can</text>
  <text font-weight="bold" xml:space="preserve" text-anchor="start" font-family="Helvetica, Arial, sans-serif" font-size="37" id="svg_109" y="327.36328" x="521.25" stroke-opacity="null" stroke-width="0" stroke="null" fill="#fac993">tell you I don't have money. But</text>
  <text font-weight="bold" xml:space="preserve" text-anchor="start" font-family="Helvetica, Arial, sans-serif" font-size="37" id="svg_110" y="369.86328" x="588.75" stroke-opacity="null" stroke-width="0" stroke="null" fill="#fac993">what I do have are a very</text>
  <text font-weight="bold" xml:space="preserve" text-anchor="start" font-family="Helvetica, Arial, sans-serif" font-size="37" id="svg_111" y="412.36328" x="588.75" stroke-opacity="null" stroke-width="0" stroke="null" fill="#fac993">particular set of skills..</text>
  <text font-style="italic" xml:space="preserve" text-anchor="start" font-family="Helvetica, Arial, sans-serif" font-size="30" id="svg_116" y="454.86328" x="643.75" stroke-opacity="null" stroke-width="0" stroke="null" fill="#fac993">-Liam Neeson, Yueh Han</text>
 </g>
</svg>